<svg width="245" height="240" viewBox="0 0 245 240" fill="none" xmlns="http://www.w3.org/2000/svg">
<g filter="url(#filter0_d_7_232)">
<path fill-rule="evenodd" clip-rule="evenodd" d="M108.377 10.5986C119.472 11.9291 127.976 21.4977 138.948 23.6386C153.529 26.4839 170.946 16.3057 182.978 25.1555C194.131 33.3584 195.112 50.8596 194.991 64.8595C194.879 77.916 183.814 88.4271 182.32 101.395C180.849 114.167 192.228 127.906 186.413 139.323C180.68 150.579 163.416 149.044 153.889 157.215C143.47 166.151 141.318 184.831 128.357 189.115C115.798 193.267 103.435 181.653 90.6981 178.104C78.6206 174.738 63.4266 177.77 54.7352 168.6C45.6941 159.06 50.4054 142.695 45.5047 130.417C41.3436 119.992 33.1594 112.11 28.1776 102.064C21.5882 88.7775 5.36209 75.0052 11.2728 61.3918C17.5287 46.9836 41.0261 52.4731 53.6619 43.3703C63.0295 36.6218 64.5289 21.8248 74.4204 15.9003C84.3976 9.92447 96.879 9.21968 108.377 10.5986Z" fill="#31AC31"/>
</g>
<defs>
<filter id="filter0_d_7_232" x="0" y="0" width="245" height="240" filterUnits="userSpaceOnUse" color-interpolation-filters="sRGB">
<feFlood flood-opacity="0" result="BackgroundImageFix"/>
<feColorMatrix in="SourceAlpha" type="matrix" values="0 0 0 0 0 0 0 0 0 0 0 0 0 0 0 0 0 0 127 0" result="hardAlpha"/>
<feOffset dx="20" dy="20"/>
<feGaussianBlur stdDeviation="15"/>
<feComposite in2="hardAlpha" operator="out"/>
<feColorMatrix type="matrix" values="0 0 0 0 0.192157 0 0 0 0 0.67451 0 0 0 0 0.192157 0 0 0 0.1 0"/>
<feBlend mode="normal" in2="BackgroundImageFix" result="effect1_dropShadow_7_232"/>
<feBlend mode="normal" in="SourceGraphic" in2="effect1_dropShadow_7_232" result="shape"/>
</filter>
</defs>
</svg>
