<svg width="30" height="30" viewBox="0 0 30 30" fill="none" xmlns="http://www.w3.org/2000/svg">
<circle cx="15" cy="15" r="15" fill="#D73D3D"/>
<path d="M7.2 9.375C7.2 8.75273 7.73625 8.25 8.4 8.25H9C9.66375 8.25 10.2 8.75273 10.2 9.375V13.875V16.125V20.625C10.2 21.2473 9.66375 21.75 9 21.75H8.4C7.73625 21.75 7.2 21.2473 7.2 20.625V19.5H5.4C4.73625 19.5 4.2 18.9973 4.2 18.375V16.125C3.53625 16.125 3 15.6223 3 15C3 14.3777 3.53625 13.875 4.2 13.875V11.625C4.2 11.0027 4.73625 10.5 5.4 10.5H7.2V9.375ZM22.8 9.375V10.5H24.6C25.2638 10.5 25.8 11.0027 25.8 11.625V13.875C26.4638 13.875 27 14.3777 27 15C27 15.6223 26.4638 16.125 25.8 16.125V18.375C25.8 18.9973 25.2638 19.5 24.6 19.5H22.8V20.625C22.8 21.2473 22.2638 21.75 21.6 21.75H21C20.3363 21.75 19.8 21.2473 19.8 20.625V16.125V13.875V9.375C19.8 8.75273 20.3363 8.25 21 8.25H21.6C22.2638 8.25 22.8 8.75273 22.8 9.375ZM18.6 13.875V16.125H11.4V13.875H18.6Z" fill="white"/>
</svg>
