<svg width="47" height="54" viewBox="0 0 47 54" fill="none" xmlns="http://www.w3.org/2000/svg">
<g clip-path="url(#clip0_6_229)">
<path d="M23.0064 0.0527287C23.3317 -0.00976375 23.6674 -0.00976375 23.9926 0.0527287L44.9747 4.21889C46.1497 4.44803 46.9995 5.47916 46.9995 6.66652C46.9995 7.85387 46.1497 8.885 44.9747 9.11414L36.9281 10.7181V16.6653C36.9281 24.029 30.9167 29.997 23.4995 29.997C16.0823 29.997 10.0709 24.029 10.0709 16.6653V10.7181L5.03523 9.71823V16.4987L6.68232 24.6644C6.77674 25.1539 6.65085 25.6642 6.33612 26.0496C6.02139 26.435 5.5388 26.6641 5.03523 26.6641H1.67808C1.17451 26.6641 0.702414 26.4454 0.377191 26.0496C0.051968 25.6538 -0.0739248 25.1539 0.0309859 24.6644L1.67808 16.4987V9.0204C0.681432 8.67669 -0.000487332 7.7393 -0.000487332 6.66652C-0.000487332 5.47916 0.849289 4.44803 2.02429 4.21889L23.0064 0.0527287ZM13.5435 33.6633L22.2721 42.8705C22.933 43.5683 24.0555 43.5683 24.7165 42.8705L33.445 33.6633C41.177 35.2152 46.989 41.9956 46.989 50.13C46.989 51.9007 45.5413 53.3276 43.7683 53.3276H3.22027C1.44728 53.3276 -0.000487332 51.8902 -0.000487332 50.13C-0.000487332 41.9956 5.82206 35.2152 13.5435 33.6633Z" fill="white"/>
</g>
<defs>
<clipPath id="clip0_6_229">
<rect width="47" height="53.3269" fill="white" transform="translate(0.000244141)"/>
</clipPath>
</defs>
</svg>
