<svg width="50" height="50" viewBox="0 0 50 50" fill="none" xmlns="http://www.w3.org/2000/svg">
<path d="M6.25 3.125C2.80273 3.125 0 5.92773 0 9.375V40.625C0 44.0723 2.80273 46.875 6.25 46.875H43.75C47.1973 46.875 50 44.0723 50 40.625V18.75C50 15.3027 47.1973 12.5 43.75 12.5H7.8125C6.95312 12.5 6.25 11.7969 6.25 10.9375C6.25 10.0781 6.95312 9.375 7.8125 9.375H43.75C45.4785 9.375 46.875 7.97852 46.875 6.25C46.875 4.52148 45.4785 3.125 43.75 3.125H6.25ZM40.625 32.8125C38.8965 32.8125 37.5 31.416 37.5 29.6875C37.5 27.959 38.8965 26.5625 40.625 26.5625C42.3535 26.5625 43.75 27.959 43.75 29.6875C43.75 31.416 42.3535 32.8125 40.625 32.8125Z" fill="white"/>
</svg>
