<svg  viewBox="0 0 1920 288" fill="none" xmlns="http://www.w3.org/2000/svg">
<path fill-rule="evenodd" clip-rule="evenodd" d="M0 0L32 30C64 60 128 120 192 132C256 144 320 108 384 90C448 72 512 72 576 90C640 108 704 144 768 168C832 192 896 204 960 210C1024 216 1088 216 1152 192C1216 168 1280 120 1344 108C1408 96 1472 120 1536 138C1600 156 1664 168 1728 144C1792 120 1856 60 1888 30L1920 0V288H1888C1856 288 1792 288 1728 288C1664 288 1600 288 1536 288C1472 288 1408 288 1344 288C1280 288 1216 288 1152 288C1088 288 1024 288 960 288C896 288 832 288 768 288C704 288 640 288 576 288C512 288 448 288 384 288C320 288 256 288 192 288C128 288 64 288 32 288H0V0Z" fill="#212121"/>
</svg>
